<svg xmlns="http://www.w3.org/2000/svg" width="14" height="16" viewBox="0 0 14 16"><g><g><path fill="#efebe4" d="M2.5-.001h9a2.5 2.5 0 0 1 2.5 2.5v11a2.5 2.5 0 0 1-2.5 2.5h-9A2.5 2.5 0 0 1 0 13.5v-11A2.5 2.5 0 0 1 2.5 0zm-1.5 9v4a2 2 0 0 0 2 2h8a2 2 0 0 0 2-2v-6h-1v.267a2.015 2.015 0 0 0-.025-.013c.015.163.023.329.023.496 0 2.898-2.238 5.247-4.998 5.247-2.76 0-4.998-2.35-4.998-5.247 0-.167.008-.333.022-.496L2 7.266V7H1v2zm2.004-1.002c0 2.208 1.79 4 3.996 4a3.998 3.998 0 0 0 3.995-4A3.998 3.998 0 0 0 7 3.996a3.998 3.998 0 0 0-3.996 4zM10 3.999h2v-2h-2z"/></g></g></svg>