<svg xmlns="http://www.w3.org/2000/svg" width="16" height="13" viewBox="0 0 16 13"><g><g><path fill="#efebe4" d="M16 1.495l-1.5 1.497v.25c0 .273-.044.534-.108.787-.035 2.059-.693 4.79-3.392 6.944-5.31 4.237-11 .498-11 .498 4.5 0 4.5-1.497 4.5-1.497-1 0-3-1.994-3-1.994.5.498 1.5 0 1.5 0C.5 6.483.5 4.987.5 4.987c.5.498 1.5 0 1.5 0-2.5-1.995-1-4.49-1-4.49.5 2.495 7 3.492 7 3.492l.083-.041C8.03 3.72 8 3.235 8 2.992c0-1.79 1.455-2.993 3.25-2.993.988 0 1.862.45 2.458 1.143L14 .996 15.5 0l-1 1.995z"/></g></g></svg>