<svg xmlns="http://www.w3.org/2000/svg" xmlns:xlink="http://www.w3.org/1999/xlink"><symbol id="icon-fb"><path fill="#efebe4" d="M3 15V8H0V6h3V3C3 .66 4.182.003 6.229.003c.98 0 1.496.107 1.742.14V2.51H6.235C5.122 2.511 5 4.209 5 5v1h3l-.5 2H5v7z"/></symbol><symbol id="icon-inst"><path fill="#efebe4" d="M2.5-.001h9a2.5 2.5 0 012.5 2.5v11a2.5 2.5 0 01-2.5 2.5h-9A2.5 2.5 0 010 13.5v-11A2.5 2.5 0 012.5 0zm-1.5 9v4a2 2 0 002 2h8a2 2 0 002-2v-6h-1v.267a2.015 2.015 0 00-.025-.013c.015.163.023.329.023.496 0 2.898-2.238 5.247-4.998 5.247-2.76 0-4.998-2.35-4.998-5.247 0-.167.008-.333.022-.496L2 7.266V7H1v2zm2.004-1.002a4 4 0 003.996 4 3.998 3.998 0 003.995-4A3.998 3.998 0 007 3.996a3.998 3.998 0 00-3.996 4zM10 3.999h2v-2h-2z"/></symbol><symbol id="icon-twr"><path fill="#efebe4" d="M16 1.495l-1.5 1.497v.25c0 .273-.044.534-.108.787-.035 2.059-.693 4.79-3.392 6.944-5.31 4.237-11 .498-11 .498 4.5 0 4.5-1.497 4.5-1.497-1 0-3-1.994-3-1.994.5.498 1.5 0 1.5 0C.5 6.483.5 4.987.5 4.987c.5.498 1.5 0 1.5 0-2.5-1.995-1-4.49-1-4.49.5 2.495 7 3.492 7 3.492l.083-.041C8.03 3.72 8 3.235 8 2.992c0-1.79 1.455-2.993 3.25-2.993.988 0 1.862.45 2.458 1.143L14 .996 15.5 0l-1 1.995z"/></symbol></svg>