<svg xmlns="http://www.w3.org/2000/svg" width="32" height="32" viewBox="0 0 32 32"><g><g><path fill="#d8bba3" d="M32 15.998c0 8.836-7.164 16-16 16-8.837 0-16-7.164-16-16 0-8.837 7.163-16 16-16 8.836 0 16 7.163 16 16zm-16-14c-7.732 0-14 6.267-14 14 0 7.732 6.268 14 14 14s14-6.268 14-14c0-7.733-6.268-14-14-14zm2.8 9.128l-5.117 4.872 5.116 4.873a.64.64 0 0 1 0 .936.72.72 0 0 1-.983 0l-5.52-5.257a.643.643 0 0 1-.299-.551.643.643 0 0 1 .3-.553l5.52-5.256a.719.719 0 0 1 .982 0 .64.64 0 0 1 0 .936z"/></g></g></svg>